<?xml version="1.0" encoding="UTF-8"?>
<svg width="20px" height="20px" viewBox="0 0 20 20" version="1.1" xmlns="http://www.w3.org/2000/svg" xmlns:xlink="http://www.w3.org/1999/xlink">
    <!-- Generator: sketchtool 58 (101010) - https://sketch.com -->
    <title>714BFEF4-8D33-40DD-AA42-BCB5F7A8AA22</title>
    <desc>Created with sketchtool.</desc>
    <g id="Page-1" stroke="none" stroke-width="1" fill="none" fill-rule="evenodd">
        <g id="03-Add-test-blank" transform="translate(-554.000000, -244.000000)" fill="#9B9B9B">
            <g id="Filter" transform="translate(554.000000, 244.000000)">
                <path d="M17.8338571,1.42935714 L1.97457143,1.42935714 C2.05171429,1.53507143 2.10814286,1.61792857 2.16885714,1.69721429 C4.44028571,4.66578571 6.71028571,7.63507143 8.98385714,10.6015 C9.13028571,10.7915 9.19814286,10.9879286 9.19742857,11.2300714 C9.191,13.3793571 9.19385714,15.5286429 9.19457143,17.6786429 C9.19457143,17.7543571 9.201,17.8307857 9.206,17.9329286 C9.62742857,17.7229286 10.0174286,17.5186429 10.416,17.3343571 C10.5631429,17.2657857 10.6145714,17.1829286 10.6138571,17.0193571 C10.6074286,15.0829286 10.6117143,13.1465 10.6067143,11.2107857 C10.606,10.9857857 10.6681429,10.7993571 10.8045714,10.6215 C12.7881429,8.03435714 14.7674286,5.44507143 16.7474286,2.85578571 C17.1038571,2.39078571 17.4574286,1.92364286 17.8338571,1.42935714 L17.8338571,1.42935714 Z M9.90957143,0.00364285714 C12.9431429,0.00364285714 15.976,0.00578571429 19.0095714,6.80401221e-05 C19.3388571,-0.000642857143 19.5888571,0.1115 19.731,0.404357143 C19.871,0.6915 19.7967143,0.9515 19.6067143,1.20507143 C17.1145714,4.52292857 14.6267143,7.84435714 12.1424286,11.1693571 C12.0745714,11.2607857 12.0274286,11.3922143 12.0267143,11.5057857 C12.0195714,13.5457857 12.0188571,15.5843571 12.0245714,17.6243571 C12.0252857,17.9586429 11.8817143,18.1879286 11.5945714,18.3322143 C10.6752857,18.7943571 9.75528571,19.2550714 8.83242857,19.7086429 C8.30314286,19.9679286 7.78314286,19.6350714 7.78242857,19.0436429 C7.781,16.5336429 7.78242857,14.0229286 7.776,11.5122143 C7.776,11.3979286 7.73242857,11.2650714 7.66528571,11.1743571 C5.17242857,7.83792857 2.67528571,4.50507143 0.176,1.17364286 C-0.00971428571,0.925071429 -0.0597142857,0.668642857 0.081,0.392214286 C0.221,0.1165 0.455285714,6.80401221e-05 0.765285714,6.80401221e-05 C3.81385714,0.00364285714 6.86171429,0.00221428571 9.90957143,0.00221428571 L9.90957143,0.00364285714 Z" id="Fill-1"></path>
            </g>
        </g>
    </g>
</svg>