<?xml version="1.0" encoding="UTF-8"?>
<svg width="20px" height="20px" viewBox="0 0 20 20" version="1.1" xmlns="http://www.w3.org/2000/svg" xmlns:xlink="http://www.w3.org/1999/xlink">
    <!-- Generator: sketchtool 55.2 (78181) - https://sketchapp.com -->
    <title>D89CAD71-7101-4402-AEFD-FA8570CD062B</title>
    <desc>Created with sketchtool.</desc>
    <g id="Page-1" stroke="none" stroke-width="1" fill="none" fill-rule="evenodd">
        <g id="01-Dasboard-first-time" transform="translate(-1268.000000, -20.000000)" fill="#FFFFFF" fill-rule="nonzero">
            <g id="Logout" transform="translate(1269.000000, 21.000000)">
                <path d="M4.52774087,0.0535875779 C5.02156709,-0.193706002 5.62236339,0.00614818548 5.86965697,0.4999744 C6.11695055,0.993800614 5.91709636,1.59459691 5.42327014,1.84189049 C2.73414325,3.1885258 1,5.93883768 1,9 C1,13.418278 4.581722,17 9,17 C13.418278,17 17,13.418278 17,9 C17,5.98584949 15.3190207,3.27093672 12.6936925,1.90167272 C12.2040091,1.64627384 12.0140839,1.04226529 12.2694828,0.552581868 C12.5248817,0.0628984438 13.1288902,-0.127026703 13.6185737,0.128372179 C16.8983701,1.83898009 19,5.23327638 19,9 C19,14.5228475 14.5228475,19 9,19 C3.4771525,19 -1,14.5228475 -1,9 C-1,5.17443078 1.16798652,1.73605331 4.52774087,0.0535875779 Z" id="Oval"></path>
                <polygon id="Line" points="8.25 -1 10.25 -1 10.25 9 8.25 9"></polygon>
            </g>
        </g>
    </g>
</svg>