<?xml version="1.0" encoding="UTF-8"?>
<svg width="111px" height="100px" viewBox="0 0 111 100" version="1.1" xmlns="http://www.w3.org/2000/svg" xmlns:xlink="http://www.w3.org/1999/xlink">
    <!-- Generator: sketchtool 55.2 (78181) - https://sketchapp.com -->
    <title>32486131-14F3-4D13-ACB5-4E192B782550</title>
    <desc>Created with sketchtool.</desc>
    <g id="Page-1" stroke="none" stroke-width="1" fill="none" fill-rule="evenodd">
        <g id="01-Dasboard-first-time" transform="translate(-460.000000, -348.000000)" fill="#9B9B9B" fill-rule="nonzero">
            <path d="M569.209593,441.830368 C569.836583,441.830368 570.344828,442.347681 570.344828,442.9856 L570.344828,446.844768 C570.344828,447.482803 569.836583,448 569.209593,448 L461.135235,448 C460.508245,448 460,447.482803 460,446.844768 L460,442.985716 C460,442.347796 460.508245,441.830484 461.135235,441.830484 L463.271633,441.830484 L463.271633,357.412946 C463.271633,352.214402 475.055031,348 489.590351,348 C504.12567,348 515.908954,352.214286 515.908954,357.412946 L515.908954,368.311404 C515.908954,368.832298 516.251341,369.288731 516.745168,369.425857 L566.237094,383.169883 C566.730694,383.307009 567.073308,383.763441 567.073308,384.284335 L567.073308,441.830368 L569.209593,441.830368 Z M472.068966,428.76578 L472.068966,423.339526 C472.068966,422.534623 471.315533,421.95772 470.568501,422.189682 C468.797732,422.739331 467.207786,423.363179 465.835783,424.048379 C465.431664,424.250205 465.172414,424.669466 465.172414,425.132669 L465.172414,430.42061 C465.172414,431.287466 466.033363,431.864009 466.804365,431.519428 C468.117141,430.932559 469.597242,430.396957 471.21814,429.921988 C471.720467,429.77491 472.068966,429.304503 472.068966,428.76578 Z M472.068966,416.696658 L472.068966,411.270456 C472.068966,410.465663 471.315533,409.888752 470.568501,410.120717 C468.797732,410.670373 467.207786,411.294229 465.835783,411.979438 C465.431664,412.181267 465.172414,412.600533 465.172414,413.063742 L465.172414,418.351629 C465.172414,419.218496 466.033363,419.795046 466.804365,419.450461 C468.117141,418.863585 469.597242,418.327976 471.21814,417.853001 C471.720467,417.705801 472.068966,417.235388 472.068966,416.696658 Z M472.068966,403.76578 L472.068966,398.33944 C472.068966,397.534404 471.315533,396.957731 470.568501,397.189697 C468.797732,397.739235 467.207786,398.363213 465.835783,399.048424 C465.431664,399.250133 465.172414,399.669521 465.172414,400.132732 L465.172414,405.420637 C465.172414,406.287507 466.033363,406.863939 466.804365,406.519472 C468.117141,405.932594 469.597242,405.396984 471.21814,404.922007 C471.72035,404.774927 472.068966,404.304512 472.068966,403.76578 Z M472.068966,391.696794 L472.068966,386.270525 C472.068966,385.465619 471.315533,384.888835 470.568501,385.120677 C468.797732,385.670328 467.207786,386.294298 465.835783,386.9795 C465.431664,387.181206 465.172414,387.600588 465.172414,388.063793 L465.172414,393.351748 C465.172414,394.218607 466.033363,394.795031 466.804365,394.450449 C468.117141,393.863699 469.597242,393.328096 471.21814,392.853125 C471.72035,392.705927 472.068966,392.235518 472.068966,391.696794 Z M472.068966,379.627829 L472.068966,374.20156 C472.068966,373.396654 471.315533,372.819869 470.568501,373.051712 C468.797732,373.601362 467.207786,374.225332 465.835783,374.910534 C465.431664,375.112361 465.172414,375.531623 465.172414,375.994828 L465.172414,381.282664 C465.172414,382.149642 466.033363,382.726067 466.804365,382.381485 C468.117141,381.794614 469.597242,381.259131 471.21814,380.78416 C471.720467,380.636962 472.068966,380.166554 472.068966,379.627829 Z M472.068966,366.69695 L472.068966,361.27051 C472.068966,360.465614 471.315533,359.888837 470.568501,360.120676 C468.797732,360.67032 467.207786,361.294282 465.835783,361.979476 C465.431664,362.1813 465.172414,362.600556 465.172414,363.063755 L465.172414,368.351644 C465.172414,369.218612 466.033363,369.795029 466.804365,369.450451 C468.117141,368.863709 469.597242,368.328112 471.21814,367.853147 C471.72035,367.706071 472.068966,367.235668 472.068966,366.69695 Z M488.448276,425.944584 L488.448276,420.693319 C488.448276,420.049846 487.921908,419.532101 487.286026,419.552295 C483.393023,419.675856 479.723786,420.075745 476.43441,420.696286 C475.901838,420.7968 475.517241,421.26925 475.517241,421.817229 L475.517241,427.031757 C475.517241,427.743342 476.153236,428.279798 476.845624,428.15407 C480.047705,427.573461 483.596939,427.200383 487.353584,427.084125 C487.962962,427.0653 488.448276,426.561246 488.448276,425.944584 Z M488.448276,413.875534 L488.448276,408.624339 C488.448276,407.980874 487.921908,407.463136 487.286026,407.48333 C483.393023,407.606889 479.723786,408.006658 476.43441,408.627305 C475.901838,408.727818 475.517241,409.200262 475.517241,409.748234 L475.517241,414.962806 C475.517241,415.674382 476.153236,416.210831 476.845624,416.085104 C480.047705,415.504389 483.597051,415.131317 487.353584,415.015059 C487.962962,414.996235 488.448276,414.492187 488.448276,413.875534 Z M488.448276,401.806568 L488.448276,396.555373 C488.448276,395.911795 487.921908,395.394171 487.286026,395.414365 C483.393023,395.538038 479.723786,395.937807 476.43441,396.558225 C475.901838,396.658852 475.517241,397.131297 475.517241,397.679268 L475.517241,402.893841 C475.517241,403.605417 476.153236,404.141865 476.845624,404.016139 C480.047705,403.435424 483.596939,403.062351 487.353584,402.946208 C487.962962,402.927383 488.448276,402.423336 488.448276,401.806568 Z M488.448276,388.875563 L488.448276,383.624323 C488.448276,382.980867 487.921795,382.463136 487.286026,382.48333 C483.393023,382.606887 479.723786,383.00688 476.43441,383.62729 C475.901838,383.727915 475.517241,384.200353 475.517241,384.748318 L475.517241,389.962822 C475.517241,390.674388 476.153236,391.21083 476.845624,391.085105 C480.047705,390.504511 483.596939,390.131443 487.353584,390.015188 C487.962962,389.996363 488.448276,389.492323 488.448276,388.875563 Z M488.448276,376.806609 L488.448276,371.55538 C488.448276,370.911912 487.921908,370.39417 487.286026,370.414364 C483.393023,370.537924 479.723786,370.937696 476.43441,371.558347 C475.901838,371.65886 475.517241,372.131422 475.517241,372.679397 L475.517241,377.893888 C475.517241,378.605469 476.153236,379.141693 476.845624,379.016194 C480.047705,378.435589 483.596939,378.0624 487.353584,377.946256 C487.962962,377.927431 488.448276,377.423381 488.448276,376.806609 Z M488.448276,364.737623 L488.448276,359.486411 C488.448276,358.842945 487.921908,358.325205 487.286026,358.345399 C483.393023,358.469072 479.723786,358.868843 476.43441,359.489377 C475.901838,359.589891 475.517241,360.062451 475.517241,360.610424 L475.517241,365.824899 C475.517241,366.536477 476.153236,367.072814 476.845624,366.947201 C480.047705,366.366484 483.596939,365.993296 487.353584,365.877266 C487.962962,365.858442 488.448276,365.354393 488.448276,364.737623 Z M506.551724,361.270566 L506.551724,366.696928 C506.551724,367.23553 506.900456,367.705937 507.40255,367.853134 C509.023564,368.327983 510.503665,368.863583 511.816441,369.450451 C512.587443,369.795031 513.448276,369.218609 513.448276,368.351635 L513.448276,363.063825 C513.448276,362.600502 513.189142,362.181363 512.784906,361.979537 C511.412904,361.294338 509.822958,360.670371 508.052189,360.120723 C507.30504,359.888762 506.551724,360.465544 506.551724,361.270566 Z M503.965292,427.031766 L503.965517,421.817267 C503.965517,421.269165 503.581033,420.79682 503.048349,420.696304 C499.758972,420.075639 496.089848,419.675858 492.196733,419.552296 C491.560851,419.532101 491.034483,420.04974 491.034483,420.693338 L491.034483,425.944575 C491.034483,426.561247 491.519684,427.065309 492.129062,427.084134 C495.885594,427.200281 499.434828,427.573364 502.637022,428.154097 C503.329297,428.279713 503.965292,427.743363 503.965292,427.031766 Z M503.965292,414.962815 L503.965517,409.748271 C503.965517,409.200176 503.581033,408.727838 503.048349,408.62721 C499.758972,408.006667 496.089848,407.606891 492.196733,407.48333 C491.560851,407.463136 491.034483,407.980768 491.034483,408.624357 L491.034483,413.875411 C491.034483,414.492188 491.519684,414.996244 492.129062,415.015069 C495.885594,415.131328 499.434715,415.504407 502.637022,416.085131 C503.329297,416.210746 503.965292,415.674403 503.965292,414.962815 Z M503.965292,402.893835 L503.965517,397.679336 C503.965517,397.131234 503.581033,396.658889 503.048349,396.558374 C499.758972,395.937709 496.089848,395.537927 492.196733,395.414365 C491.560851,395.39417 491.034483,395.911695 491.034483,396.555407 L491.034483,401.806644 C491.034483,402.423316 491.519684,402.927378 492.129062,402.946203 C495.885594,403.06235 499.434715,403.435433 502.637022,404.016166 C503.329297,404.141782 503.965292,403.605432 503.965292,402.893835 Z M503.965292,389.9628 L503.965517,384.748301 C503.965517,384.200199 503.581033,383.727855 503.048349,383.627225 C499.758972,383.006788 496.089848,382.606893 492.196733,382.48333 C491.560851,382.463136 491.034483,382.980775 491.034483,383.624373 L491.034483,388.875495 C491.034483,389.492281 491.519684,389.996343 492.129062,390.015169 C495.885594,390.131315 499.434828,390.504399 502.637022,391.085131 C503.329297,391.210747 503.965292,390.674397 503.965292,389.9628 Z M503.965292,377.893873 L503.965517,372.679427 C503.965517,372.13133 503.581033,371.658877 503.048349,371.558362 C499.758972,370.937703 496.089848,370.537926 492.196733,370.414364 C491.560851,370.39417 491.034483,370.911918 491.034483,371.555395 L491.034483,376.80658 C491.034483,377.423359 491.519684,377.927416 492.129062,377.946241 C495.885594,378.062273 499.434828,378.435467 502.637022,379.016193 C503.329297,379.141694 503.965292,378.605463 503.965292,377.893873 Z M503.965292,365.824884 L503.965517,360.610454 C503.965517,360.062359 503.581033,359.589907 503.048349,359.489393 C499.758972,358.868736 496.089848,358.46896 492.196733,358.345399 C491.560851,358.325205 491.034483,358.842837 491.034483,359.486426 L491.034483,364.737594 C491.034483,365.354371 491.519684,365.858427 492.129062,365.877252 C495.885594,365.993283 499.434828,366.366476 502.637022,366.9472 C503.329297,367.072815 503.965292,366.536472 503.965292,365.824884 Z M506.551724,379.627843 C506.551724,380.166325 506.900223,380.636851 507.40255,380.784168 C509.023564,381.259137 510.503665,381.794618 511.816441,382.381485 C512.587443,382.726066 513.448276,382.149644 513.448276,381.28267 L513.448276,375.994859 C513.448276,375.531537 513.189142,375.112397 512.784906,374.910571 C511.412904,374.225372 509.822958,373.601406 508.052189,373.051758 C507.30504,372.819796 506.551724,373.396578 506.551724,374.2016 L506.551724,379.627843 Z M543.62069,441.965517 L543.62069,431.076418 C543.62069,430.424896 543.119458,429.896552 542.50112,429.896552 L527.49888,429.896552 C526.880654,429.896552 526.37931,430.424896 526.37931,431.076418 L526.37931,441.965517 L543.62069,441.965517 Z M561.724138,421.822672 L561.724138,417.280776 C561.724138,416.630538 561.2164,416.103448 560.590034,416.103448 L511.996173,416.103448 C511.369807,416.103448 510.862069,416.630538 510.862069,417.280776 L510.862069,421.822672 C510.862069,422.472793 511.369807,423 511.996173,423 L560.590034,423 C561.2164,423 561.724138,422.472793 561.724138,421.822672 Z M561.724138,410.615796 L561.724138,406.07386 C561.724138,405.423632 561.2164,404.896552 560.590034,404.896552 L511.996173,404.896552 C511.369807,404.896552 510.862069,405.423632 510.862069,406.07386 L510.862069,410.615796 C510.862069,411.265905 511.369807,411.793103 511.996173,411.793103 L560.590034,411.793103 C561.2164,411.793103 561.724138,411.265905 561.724138,410.615796 Z M561.724138,398.54683 L561.724138,394.004894 C561.724138,393.354785 561.2164,392.827586 560.590034,392.827586 L511.996173,392.827586 C511.369807,392.827586 510.862069,393.354785 510.862069,394.004894 L510.862069,398.54683 C510.862069,399.197057 511.369807,399.724138 511.996173,399.724138 L560.590034,399.724138 C561.2164,399.724138 561.724138,399.197057 561.724138,398.54683 Z" id="Default-Image"></path>
        </g>
    </g>
</svg>